<?xml version="1.0" standalone="no"?>
<!DOCTYPE svg PUBLIC "-//W3C//DTD SVG 20010904//EN"
 "http://www.w3.org/TR/2001/REC-SVG-20010904/DTD/svg10.dtd">
<svg version="1.0" xmlns="http://www.w3.org/2000/svg"
 width="1029.000000pt" height="766.000000pt" viewBox="0 0 1029.000000 766.000000"
 preserveAspectRatio="xMidYMid meet">
<metadata>
Created by potrace 1.16, written by Peter Selinger 2001-2019
</metadata>
<g transform="translate(0.000000,766.000000) scale(0.100000,-0.100000)"
fill="#000000" stroke="none">
<path d="M22 7637 c-33 -35 -29 -138 18 -426 72 -450 108 -796 160 -1556 43
-634 60 -781 110 -981 59 -236 162 -441 422 -845 31 -47 65 -103 76 -125 22
-44 99 -316 108 -387 7 -53 -20 -114 -65 -146 -38 -27 -115 -182 -141 -284
-40 -161 -52 -560 -20 -707 18 -81 74 -181 141 -249 99 -102 340 -206 623
-270 76 -17 144 -34 151 -39 24 -14 20 -21 -356 -532 -422 -573 -441 -608
-456 -820 -5 -74 -3 -91 15 -126 22 -44 73 -93 125 -121 27 -15 58 -18 202
-18 249 1 214 -14 755 327 223 140 470 287 641 382 l67 37 38 -53 c118 -166
376 -379 568 -469 180 -84 551 -161 1016 -211 186 -19 747 -16 970 6 460 45
695 92 870 173 154 71 279 162 431 313 178 177 260 287 432 581 64 108 42 94
262 176 148 55 331 103 391 103 l45 0 -26 -48 c-32 -59 -129 -192 -371 -514
-187 -246 -283 -394 -306 -470 -17 -56 12 -105 82 -140 64 -32 229 -75 449
-118 376 -72 558 -84 1101 -77 634 9 919 50 1150 167 33 17 91 37 129 45 145
30 300 103 368 173 77 80 88 114 88 282 0 141 -1 147 -33 224 -42 101 -100
182 -195 273 -156 148 -359 233 -554 233 -162 0 -410 -86 -839 -288 -226 -107
-386 -171 -446 -180 -21 -2 -38 -3 -38 0 0 2 7 26 16 51 19 56 37 67 149 92
242 53 588 202 819 355 157 103 295 220 487 410 258 256 394 429 488 617 138
276 145 466 22 628 -20 25 -37 66 -47 110 -9 39 -23 90 -31 113 -19 55 -104
141 -169 172 l-48 24 -255 -13 c-278 -13 -360 -26 -459 -73 -154 -73 -355
-279 -424 -435 -32 -73 -56 -166 -73 -286 -29 -202 -77 -343 -159 -466 -58
-85 -133 -161 -161 -161 -37 0 -233 190 -420 407 -96 112 -152 142 -265 142
-137 1 -279 -49 -427 -151 -115 -78 -312 -280 -435 -444 -70 -93 -116 -145
-135 -152 -15 -6 -100 -27 -188 -47 -88 -20 -227 -52 -310 -71 -83 -19 -193
-37 -247 -41 -96 -6 -97 -6 -102 18 -3 13 -17 86 -31 162 -14 75 -45 202 -69
282 -42 141 -42 145 -24 162 37 33 79 109 100 178 11 38 28 78 36 88 8 9 74
47 145 83 187 95 201 110 286 313 40 92 108 230 153 307 79 136 81 141 82 208
1 64 -1 70 -27 89 -23 18 -41 21 -110 20 -175 -1 -308 -95 -352 -248 -8 -27
-21 -101 -27 -164 l-13 -113 -93 -54 -93 -53 29 42 c75 109 117 238 110 335
-5 62 -29 99 -82 127 -30 16 -41 30 -54 69 -22 65 -55 89 -131 94 -43 3 -77
-2 -125 -18 -53 -17 -70 -19 -81 -10 -8 7 -15 18 -15 24 0 6 -21 45 -47 86
-43 68 -52 96 -102 295 l-56 220 -71 -3 -71 -3 -54 49 -54 50 -44 -39 c-48
-43 -76 -49 -84 -19 -3 11 -13 20 -23 20 -29 0 -129 -110 -149 -164 -17 -43
-17 -57 -7 -130 7 -45 23 -111 37 -146 19 -49 55 -187 55 -212 0 -2 -51 -4
-112 -3 -104 0 -117 -2 -165 -27 -68 -36 -105 -85 -111 -147 -6 -66 12 -90
114 -152 101 -62 160 -113 208 -178 52 -71 60 -120 41 -265 -45 -337 -41 -400
31 -542 44 -86 47 -95 41 -150 -7 -70 -34 -139 -132 -335 -71 -141 -142 -265
-221 -383 l-38 -58 -76 7 c-111 10 -234 33 -303 56 -34 11 -163 77 -287 147
-414 232 -481 261 -701 291 -105 14 -135 22 -146 37 -35 47 23 169 182 384
122 165 212 326 285 510 23 58 45 109 50 114 8 8 15 -8 22 -59 4 -27 34 -31
48 -5 6 11 14 75 17 141 6 120 6 121 25 98 15 -20 19 -22 28 -9 19 29 3 159
-30 236 l-20 46 20 -5 c30 -8 37 19 15 59 -10 19 -44 59 -76 89 l-57 55 134
92 c133 90 151 104 141 114 -7 7 -68 -25 -201 -104 -107 -64 -113 -67 -174
-66 -35 0 -67 5 -73 11 -7 7 50 68 178 189 322 308 348 333 342 338 -15 16
-198 -134 -424 -348 -77 -73 -151 -140 -165 -149 -16 -10 -48 -16 -93 -16
l-68 0 47 90 c26 50 96 165 155 255 60 91 109 167 109 169 0 3 -6 5 -14 5 -36
0 -192 -222 -291 -414 l-60 -116 -182 0 -182 0 -32 46 c-56 82 -153 186 -287
308 -147 134 -216 186 -246 186 -11 0 -51 -12 -88 -26 -58 -23 -74 -26 -118
-18 l-50 9 108 171 c59 93 198 300 309 460 308 445 397 604 464 834 97 329
100 994 8 1545 -45 266 -87 424 -125 466 -12 13 -31 19 -60 19 -41 0 -45 -3
-64 -40 -11 -22 -92 -253 -179 -513 -210 -623 -282 -814 -466 -1222 -322 -714
-403 -956 -456 -1347 -20 -150 -34 -194 -79 -248 l-22 -25 6 215 c18 662 19
953 2 1077 -37 280 -118 510 -328 928 -146 290 -436 781 -565 956 -144 195
-235 256 -291 196z m149 -85 c105 -109 219 -272 381 -547 258 -435 508 -960
573 -1199 46 -174 48 -214 49 -1058 1 -438 4 -800 9 -804 15 -15 21 9 32 140
12 140 30 192 84 240 27 25 27 21 -9 -91 -54 -167 -34 -203 37 -68 39 74 77
117 157 177 35 26 33 22 -54 -102 -74 -104 -95 -140 -83 -140 4 0 57 34 117
75 60 41 116 75 123 75 8 0 -18 -37 -56 -81 -88 -101 -96 -132 -23 -87 42 26
188 41 302 30 l75 -7 17 -50 c16 -47 17 -49 26 -25 5 14 12 32 15 40 4 10 6 8
6 -7 1 -29 11 -53 22 -53 5 0 9 32 9 70 0 72 2 75 45 70 20 -2 99 -53 110 -71
13 -21 -5 -21 -45 0 -39 20 -40 20 -40 1 0 -23 62 -144 112 -220 58 -87 183
-232 352 -408 l157 -163 -33 -38 c-78 -91 -152 -130 -294 -157 -129 -24 -130
-24 -207 133 -35 71 -80 153 -100 184 -131 204 -341 396 -473 435 -58 17 -116
11 -136 -13 -19 -23 -12 -132 13 -205 59 -171 215 -400 362 -527 37 -33 46
-54 27 -66 -15 -9 -230 -45 -271 -45 l-36 0 -7 62 c-19 166 -102 172 -254 19
l-74 -75 5 49 c26 218 16 338 -30 375 -46 36 -90 25 -159 -41 l-40 -40 -42
133 c-46 145 -51 174 -27 164 54 -22 51 -22 31 9 -11 17 -40 55 -66 85 -203
238 -412 611 -495 884 -65 216 -79 333 -125 1016 -54 807 -89 1145 -165 1602
-47 281 -53 346 -33 378 23 36 52 24 129 -58z m2338 48 c62 -103 154 -690 170
-1090 21 -512 -34 -840 -194 -1162 -69 -137 -129 -231 -363 -568 -105 -151
-228 -335 -274 -409 -46 -74 -99 -151 -118 -172 -31 -33 -43 -39 -95 -45 l-59
-7 41 49 c23 27 55 62 72 78 35 33 39 46 15 46 -10 0 -14 6 -11 14 3 7 63 91
134 187 151 203 366 507 445 629 245 377 330 850 254 1410 -34 248 -41 368
-27 459 6 40 9 76 6 80 -11 11 -24 -24 -45 -119 -94 -424 -166 -621 -476
-1304 -268 -588 -318 -729 -385 -1075 -11 -58 -26 -116 -34 -131 -7 -14 -42
-50 -76 -80 -35 -30 -85 -77 -111 -105 -27 -27 -48 -46 -48 -41 0 4 16 44 35
87 33 75 42 109 30 109 -4 0 -20 -7 -37 -16 l-31 -16 6 85 c8 118 60 361 108
514 59 183 124 346 314 783 274 631 366 875 559 1470 117 360 149 416 195 340z
m-25 -902 c43 -235 41 -829 -3 -1014 -48 -197 -178 -451 -374 -734 -171 -246
-427 -596 -455 -624 -17 -15 -35 -25 -41 -22 -20 13 -12 75 15 116 26 39 26
41 9 60 -15 17 -17 32 -12 102 13 201 124 521 353 1020 215 468 350 795 435
1056 24 72 46 132 50 132 3 0 13 -42 23 -92z m2506 -2413 c28 -34 72 -56 130
-66 33 -6 58 -15 55 -19 -3 -4 -42 -11 -87 -15 -46 -4 -92 -14 -103 -21 -30
-21 -69 -17 -94 10 -29 31 -22 56 27 96 41 34 54 37 72 15z m-154 -75 c34 -62
82 -94 127 -86 137 24 232 35 239 28 15 -15 59 -206 61 -264 1 -48 -3 -61 -23
-83 l-23 -25 41 0 c35 0 45 -5 69 -35 41 -51 83 -134 76 -150 -8 -22 -98 -45
-203 -52 -156 -9 -220 -53 -220 -150 0 -34 7 -51 33 -80 56 -65 59 -71 67
-137 10 -80 39 -129 98 -167 96 -61 182 -59 353 7 48 19 95 31 103 28 42 -16
56 -181 20 -249 -11 -22 -31 -45 -43 -51 -14 -7 -19 -14 -12 -18 13 -8 22 -4
75 38 36 28 39 29 51 12 17 -22 35 -127 35 -197 -1 -70 -26 -126 -90 -193 -75
-79 -128 -99 -265 -100 -142 -1 -198 17 -256 82 -93 105 -155 291 -199 605
-17 114 -30 214 -30 222 0 8 11 17 25 21 36 9 31 31 -12 49 -49 21 -81 51
-100 95 -15 36 -63 338 -63 398 l0 33 50 -7 c29 -4 50 -3 50 3 0 15 -23 33
-43 33 -31 0 -74 31 -95 69 -44 81 -53 211 -18 278 18 36 70 93 84 93 6 0 23
-23 38 -50z m-2633 -208 c96 -52 282 -245 361 -377 45 -75 46 -85 3 -78 -23 3
-37 0 -46 -11 -7 -9 -19 -16 -27 -16 -26 0 -257 267 -331 383 -88 139 -79 163
40 99z m-583 -204 c102 -53 265 -216 362 -363 88 -134 178 -305 178 -340 0
-25 -17 -35 -58 -35 -39 1 -65 19 -110 76 -41 52 -108 94 -150 94 -14 0 -29
-11 -41 -30 l-18 -30 -26 20 c-43 34 -162 191 -216 285 -103 181 -124 283 -69
335 31 29 75 25 148 -12z m1305 -170 c9 -8 -37 -123 -97 -240 -58 -113 -56
-122 25 -165 61 -33 72 -64 37 -112 -23 -34 -50 -45 -97 -42 -29 1 -39 -6 -94
-73 -71 -88 -124 -119 -191 -114 l-43 3 -3 72 c-4 91 -12 99 -84 79 -84 -25
-765 -126 -845 -126 -43 0 -46 1 -32 16 9 8 40 21 70 29 63 17 619 94 894 125
105 12 205 23 224 26 l33 5 -6 79 c-10 107 -48 272 -85 365 -17 42 -31 79 -31
81 0 8 317 0 325 -8z m194 -5 c-70 -90 -254 -294 -256 -286 -4 12 54 168 86
231 29 57 55 72 124 72 55 0 58 -1 46 -17z m1600 -20 c27 -21 41 -57 60 -158
11 -61 65 -185 81 -185 11 0 25 -68 56 -270 14 -96 34 -217 45 -269 25 -120
24 -138 -6 -203 -31 -66 -34 -159 -7 -200 18 -27 18 -27 17 55 0 76 19 177 34
177 3 0 24 -35 46 -77 74 -142 144 -199 275 -226 82 -16 88 -34 26 -73 -70
-44 -153 -191 -199 -354 -41 -142 -60 -191 -80 -208 -8 -7 -54 -27 -103 -46
-49 -18 -151 -59 -226 -89 -146 -59 -226 -81 -271 -75 l-27 3 47 70 c127 189
307 523 338 629 8 27 15 67 15 88 0 49 -35 176 -54 197 -52 57 -62 197 -32
446 20 164 20 210 0 269 -23 66 -110 157 -219 228 -120 79 -135 94 -135 135 0
52 23 86 78 116 92 50 189 58 241 20z m983 0 c60 -65 58 -91 -11 -112 -22 -6
-89 -34 -148 -62 -145 -68 -175 -78 -268 -90 -44 -6 -100 -19 -124 -30 -63
-28 -88 -25 -111 14 -21 34 -28 129 -11 155 6 10 56 18 162 27 134 11 162 16
209 40 85 43 201 84 241 85 26 0 42 -7 61 -27z m-2427 3 c17 -12 13 -17 -51
-70 -104 -87 -262 -198 -275 -194 -14 5 131 187 190 241 32 29 49 37 79 37 21
0 46 -6 57 -14z m3144 -27 c42 -15 56 -49 37 -92 -7 -18 -47 -93 -87 -167 -41
-74 -92 -173 -113 -220 -93 -201 -136 -279 -169 -304 -32 -25 -159 -87 -244
-119 l-42 -16 -20 55 c-12 30 -30 73 -41 94 -11 22 -20 57 -20 78 0 35 4 41
33 52 17 7 69 35 113 62 45 26 87 48 93 48 6 0 11 -12 11 -27 0 -25 1 -26 16
-11 12 12 18 48 25 150 12 185 16 213 38 256 61 120 251 202 370 161z m-2985
-47 c50 -34 56 -50 16 -44 -39 6 -38 -6 4 -77 33 -54 73 -167 63 -178 -3 -2
-18 16 -33 42 -36 62 -46 43 -29 -55 16 -88 19 -230 5 -230 -9 0 -12 13 -28
109 -9 57 -29 64 -37 14 -14 -86 -29 -143 -62 -233 -39 -105 -136 -305 -190
-390 -41 -64 -135 -191 -140 -187 -1 2 11 38 28 81 61 158 18 94 -101 -149
-67 -137 -135 -266 -151 -286 -16 -21 -51 -46 -81 -60 -48 -21 -66 -23 -198
-23 -163 2 -197 10 -205 51 -24 111 -74 168 -176 202 -35 11 -143 39 -239 60
-259 59 -372 102 -437 164 -40 37 -43 77 -10 107 61 59 675 356 694 337 9 -10
-183 -142 -342 -237 -159 -94 -232 -150 -196 -150 5 0 40 18 79 40 110 64 133
58 297 -80 326 -273 445 -347 572 -358 81 -6 111 7 174 76 58 63 142 228 159
312 6 32 32 92 63 145 l52 90 1 235 c1 196 5 250 22 327 29 130 37 143 102
165 54 18 89 42 78 53 -3 4 -23 -1 -43 -9 -21 -9 -40 -16 -42 -16 -19 0 129
121 208 169 40 25 67 22 123 -17z m2401 -86 c70 -70 24 -292 -87 -412 -22 -24
-44 -44 -48 -44 -8 0 -30 69 -30 93 0 9 14 32 31 51 54 62 26 60 -51 -3 -111
-91 -207 -131 -316 -131 -131 0 -214 69 -214 180 0 89 16 100 170 120 123 16
172 29 195 50 21 19 148 85 205 106 59 21 117 18 145 -10z m4067 -9 c103 -60
147 -118 172 -225 l14 -62 -71 0 c-118 -1 -202 -16 -272 -49 -92 -43 -200
-119 -270 -192 -44 -46 -50 -56 -24 -37 157 115 203 145 264 174 144 69 312
74 406 11 71 -47 102 -170 79 -308 -41 -243 -201 -496 -515 -818 -418 -428
-774 -656 -1222 -785 -67 -19 -145 -38 -174 -42 l-52 -7 6 39 c8 51 39 76 124
104 120 39 277 107 374 161 199 110 330 211 505 390 182 188 254 301 254 402
0 60 -46 151 -114 224 -134 144 -289 204 -566 219 l-132 7 6 62 c27 262 213
537 446 659 83 44 208 86 255 86 34 0 36 -2 24 -17 -8 -9 -54 -50 -104 -91
-49 -41 -118 -106 -152 -145 -58 -66 -132 -191 -121 -203 3 -2 31 34 63 81 97
144 262 277 427 346 98 41 138 48 239 45 72 -2 93 -6 131 -29z m-8745 -54 c40
-60 14 -332 -58 -613 -30 -117 -41 -183 -46 -270 -6 -118 3 -250 16 -250 5 0
11 73 14 163 5 124 12 184 30 258 84 328 284 577 356 442 20 -38 12 -103 -34
-293 -56 -230 -72 -345 -57 -426 15 -85 28 -114 52 -114 11 0 68 -18 127 -40
119 -45 300 -95 378 -105 90 -12 234 -65 277 -102 51 -45 44 -234 -12 -348
-16 -33 -64 -105 -106 -160 -58 -76 -98 -144 -165 -282 -151 -310 -342 -658
-451 -821 -61 -91 -72 -116 -34 -82 55 50 192 255 322 485 199 353 445 650
599 726 93 46 191 52 267 17 62 -29 137 -100 192 -181 34 -53 54 -92 119 -239
19 -43 31 -58 46 -58 11 0 100 -54 198 -119 196 -131 338 -208 501 -272 129
-50 303 -96 421 -109 131 -15 651 -12 831 4 329 31 663 103 933 201 54 19 101
35 104 35 3 0 2 -11 -1 -25 -11 -45 12 -26 85 68 65 82 143 198 565 841 242
368 443 608 599 716 152 105 320 166 432 157 100 -8 150 -42 278 -193 147
-173 240 -265 363 -357 110 -82 149 -99 113 -48 -28 39 -27 52 10 87 69 65
184 265 244 422 35 94 52 105 165 110 176 9 385 -73 515 -202 123 -122 150
-225 90 -339 -56 -106 -278 -337 -450 -468 -200 -154 -469 -290 -657 -333 -36
-8 -36 -3 -1 144 21 90 27 142 27 240 1 113 -1 130 -23 175 -35 71 -113 150
-170 172 -40 16 -79 18 -294 18 l-247 0 0 25 c0 23 -4 21 -51 -25 -64 -63
-256 -300 -384 -474 -100 -137 -236 -342 -404 -609 -150 -239 -349 -459 -522
-579 -185 -127 -367 -192 -698 -247 -289 -49 -502 -60 -971 -52 -437 7 -552
16 -790 57 -492 86 -679 166 -942 401 -93 83 -208 218 -208 243 0 19 20 29
142 71 120 42 146 59 73 49 -182 -26 -449 -163 -990 -505 -377 -238 -461 -287
-542 -315 -183 -64 -390 -30 -475 77 -40 50 -47 121 -24 220 32 138 113 271
418 682 445 600 479 648 478 698 -1 19 -4 17 -21 -14 -32 -61 -43 -63 -197
-32 -173 34 -263 61 -401 119 -136 57 -210 105 -279 178 -106 113 -128 218
-119 547 9 289 28 385 106 535 28 55 37 65 39 47 2 -12 -2 -46 -8 -75 -31
-142 -32 -689 -1 -720 8 -8 11 42 11 203 0 395 37 625 127 796 48 90 133 124
170 67z m1761 -349 c16 -35 40 -173 48 -281 6 -80 4 -93 -15 -132 -37 -72 -97
-129 -154 -146 -72 -21 -129 -19 -160 6 -29 22 -45 68 -77 214 -27 123 -27
132 13 148 18 8 61 42 95 76 35 35 70 60 77 57 14 -5 32 -76 61 -234 9 -51 19
-91 21 -89 2 3 -3 74 -12 158 -18 187 -19 219 -2 223 6 2 26 8 42 14 45 15 51
14 63 -14z m-693 -94 c-210 -63 -771 -218 -776 -214 -11 7 20 90 40 108 10 9
44 21 77 27 129 25 632 97 674 97 l45 0 -60 -18z m-10 -59 c-6 -5 -98 -47
-207 -94 -108 -47 -287 -132 -398 -187 l-203 -101 5 71 c4 52 11 77 24 90 20
19 164 65 523 166 222 62 275 73 256 55z m52 -442 c34 -16 94 -54 132 -84 39
-30 71 -52 71 -49 0 4 -29 38 -65 75 -36 38 -65 74 -65 81 0 16 86 2 138 -24
31 -14 59 -41 93 -87 48 -65 139 -234 139 -258 0 -17 -85 -59 -135 -67 -56 -9
-146 17 -228 65 -121 72 -347 266 -347 297 0 17 52 61 83 71 78 24 95 22 184
-20z m3233 -459 c6 -133 8 -250 5 -259 -4 -13 -47 -25 -187 -53 -100 -21 -184
-36 -185 -34 -2 2 4 23 12 47 9 24 27 85 41 134 14 50 48 138 75 196 41 84 57
109 84 123 18 10 54 40 81 67 36 36 50 45 56 35 4 -7 12 -122 18 -256z m2650
-19 c78 -41 109 -71 141 -138 30 -59 32 -71 31 -166 -1 -135 -26 -247 -122
-542 -90 -276 -92 -285 -81 -304 7 -11 14 -4 30 27 17 34 29 43 63 53 140 38
252 84 573 234 55 26 121 55 148 66 l47 19 -70 -88 c-118 -145 -183 -255 -326
-552 -90 -185 -136 -227 -275 -250 -82 -13 -620 -13 -764 0 -259 24 -525 92
-525 136 0 25 41 84 281 394 251 326 409 564 409 616 0 15 -3 14 -24 -5 -16
-15 -63 -32 -147 -52 -68 -17 -204 -55 -302 -85 -98 -31 -184 -54 -192 -52
-23 5 289 427 460 620 l77 87 106 4 c59 2 177 3 262 3 143 -1 158 -3 200 -25z
m-5294 -48 c14 -95 96 -288 138 -322 13 -11 14 -8 9 22 -5 33 -4 35 33 41 47
9 200 -1 319 -20 131 -22 226 -47 445 -119 283 -93 371 -114 584 -141 l49 -6
-29 -19 -29 -19 32 0 c34 0 130 33 443 153 226 86 368 128 532 156 320 55 597
29 840 -79 129 -57 174 -89 171 -124 -2 -30 -245 -402 -312 -478 -65 -73 -185
-131 -402 -193 -149 -43 -469 -109 -599 -124 -278 -32 -807 -43 -965 -21 -315
45 -618 170 -907 374 -145 103 -223 184 -302 313 -109 180 -176 249 -293 305
-66 31 -101 67 -166 169 l-35 56 132 -1 c148 -1 160 3 242 78 27 25 52 45 56
46 4 0 10 -21 14 -47z m312 -54 c99 -24 171 -56 362 -160 202 -109 226 -130
104 -94 -101 29 -283 64 -424 80 -80 9 -172 19 -204 23 l-59 7 -23 60 c-29 76
-29 93 -1 105 31 14 146 4 245 -21z m-784 -43 c38 -40 110 -172 101 -186 -3
-6 -21 -10 -38 -10 -18 -1 -45 -7 -62 -14 -38 -17 -62 -6 -97 44 -34 47 -36
59 -19 138 14 62 14 62 49 62 26 0 42 -8 66 -34z m4240 -28 c-23 -44 -139
-233 -166 -269 -12 -16 -26 -29 -30 -29 -5 0 -44 20 -86 45 -42 25 -124 63
-182 86 -58 22 -114 43 -125 48 -13 5 51 25 215 64 432 105 397 100 374 55z
m-4334 -213 c0 -6 -25 -35 -56 -65 -31 -30 -101 -109 -156 -175 -133 -159
-134 -159 -103 -90 47 107 137 256 215 354 l43 55 29 -34 c15 -19 28 -39 28
-45z m7381 -235 c68 -13 208 -79 277 -131 78 -59 160 -145 207 -219 44 -68
110 -208 102 -217 -3 -2 -32 31 -65 74 -128 169 -332 293 -571 349 -35 8 -66
12 -69 9 -5 -5 11 -12 158 -68 250 -96 411 -230 501 -416 44 -94 48 -144 14
-218 -35 -79 -93 -134 -185 -177 -83 -38 -205 -74 -216 -63 -4 4 3 39 15 79
44 150 15 256 -96 358 -63 58 -220 139 -328 170 -116 33 -107 22 29 -35 194
-81 281 -147 342 -258 57 -104 28 -245 -68 -332 -127 -115 -469 -186 -1045
-217 -427 -23 -927 23 -1395 128 -245 55 -311 84 -316 143 -4 42 4 75 23 94
13 14 26 11 109 -19 208 -74 234 -76 794 -81 l502 -5 65 47 c76 54 102 89 145
200 100 255 280 537 416 651 95 79 206 138 299 157 41 9 304 7 356 -3z"/>
<path d="M282 7219 c3 -13 19 -76 36 -139 52 -196 99 -573 142 -1125 27 -347
46 -534 70 -681 85 -522 254 -992 450 -1252 64 -85 97 -119 106 -109 4 4 -1
18 -10 32 -28 43 -35 165 -46 850 -13 822 -19 896 -91 1121 -113 356 -263 677
-474 1020 -51 83 -109 183 -129 222 -38 75 -63 104 -54 61z m172 -309 c145
-234 292 -534 384 -780 98 -267 147 -481 162 -719 11 -167 11 -1000 1 -1244
l-6 -148 -63 104 c-160 264 -303 693 -366 1097 -25 162 -50 403 -101 970 -31
350 -51 527 -76 690 -10 69 -19 132 -19 140 1 20 17 -1 84 -110z"/>
<path d="M1299 3977 c-21 -14 -39 -38 -48 -62 -18 -51 -18 -220 -1 -260 10
-23 14 -26 17 -12 6 22 12 22 41 -5 l25 -23 -7 25 c-33 121 -46 177 -46 202 0
40 25 94 48 107 31 17 93 13 163 -9 35 -10 65 -18 67 -16 6 7 -63 53 -97 65
-57 19 -124 14 -162 -12z"/>
<path d="M3185 1530 c-2 -4 26 -15 63 -25 126 -34 323 -105 410 -149 117 -59
162 -77 162 -65 0 17 -143 102 -245 146 -147 62 -375 117 -390 93z"/>
</g>
</svg>
